<?xml version="1.0" standalone="no"?>
<!DOCTYPE svg PUBLIC "-//W3C//DTD SVG 20010904//EN"
 "http://www.w3.org/TR/2001/REC-SVG-20010904/DTD/svg10.dtd">
<svg version="1.0" xmlns="http://www.w3.org/2000/svg"
 width="2848.000000pt" height="656.000000pt" viewBox="0 0 2848.000000 656.000000"
 preserveAspectRatio="xMidYMid meet">
<metadata>
Created by potrace 1.16, written by Peter Selinger 2001-2019
</metadata>
<g transform="translate(0.000000,656.000000) scale(0.100000,-0.100000)"
fill="#000000" stroke="none">
<path d="M3836 4830 c-248 -31 -475 -122 -667 -267 -301 -226 -494 -570 -518
-922 l-6 -95 -86 -12 c-484 -70 -826 -525 -745 -992 9 -51 30 -128 46 -170 31
-80 110 -210 152 -249 l23 -22 715 484 c393 266 735 491 759 500 62 21 159 19
223 -5 34 -13 86 -48 146 -100 132 -114 156 -125 272 -125 159 0 131 -24 657
591 248 291 452 536 452 544 0 8 -18 53 -42 100 -185 372 -532 635 -949 720
-115 24 -326 33 -432 20z"/>
<path d="M17195 4507 c-84 -33 -130 -99 -129 -187 1 -65 20 -105 68 -148 40
-35 85 -47 156 -40 122 12 196 154 141 273 -43 93 -146 137 -236 102z"/>
<path d="M21200 3270 l0 -1180 140 0 140 0 0 158 1 157 27 -35 c173 -224 382
-319 671 -307 184 7 333 61 473 172 127 99 243 287 289 465 30 117 37 330 15
456 -45 259 -186 475 -389 596 -245 147 -589 149 -830 7 -80 -47 -182 -140
-217 -198 -14 -22 -28 -41 -32 -41 -5 0 -8 209 -8 465 l0 465 -140 0 -140 0 0
-1180z m1030 328 c153 -36 304 -157 373 -298 57 -116 71 -185 70 -335 -1 -222
-50 -353 -183 -485 -144 -145 -330 -198 -535 -155 -258 55 -433 262 -465 549
-19 164 14 333 87 454 138 227 391 331 653 270z"/>
<path d="M8680 4016 l0 -424 -62 60 c-47 45 -90 73 -173 113 -159 78 -211 90
-385 89 -135 0 -152 -3 -240 -32 -320 -106 -525 -367 -570 -726 -63 -501 213
-939 649 -1032 90 -19 265 -18 354 2 141 32 303 125 386 221 l41 48 0 -127 0
-128 185 0 185 0 0 1180 0 1180 -185 0 -185 0 0 -424z m-411 -481 c190 -45
344 -204 396 -410 9 -35 15 -104 15 -170 0 -190 -53 -331 -169 -445 -108 -107
-214 -150 -366 -150 -148 0 -267 52 -370 162 -119 125 -159 237 -160 438 0
167 20 241 96 355 124 185 341 271 558 220z"/>
<path d="M11760 4050 l0 -220 -105 0 -105 0 0 -145 0 -145 105 0 104 0 3 -567
c4 -559 4 -569 26 -628 30 -82 87 -154 152 -193 99 -59 132 -65 383 -70 l227
-4 0 145 0 145 -158 4 c-173 4 -202 13 -246 71 -21 28 -21 37 -24 563 l-3 534
216 0 215 0 0 145 0 145 -215 0 -215 0 0 220 0 220 -180 0 -180 0 0 -220z"/>
<path d="M15775 3856 c-170 -34 -303 -113 -398 -236 l-27 -35 0 128 0 127
-140 0 -140 0 0 -875 0 -875 139 0 140 0 3 553 c5 598 4 596 63 725 86 188
326 289 566 238 190 -41 318 -179 354 -383 11 -60 14 -201 15 -605 l0 -528
140 0 141 0 -3 608 c-4 676 -2 657 -75 812 -52 108 -167 222 -283 278 -47 23
-112 49 -145 57 -85 23 -264 28 -350 11z"/>
<path d="M18605 3856 c-170 -33 -296 -110 -393 -240 l-22 -29 0 127 0 126
-145 0 -145 0 0 -875 0 -875 145 0 145 0 0 530 c0 583 3 626 60 745 30 63 109
149 170 187 60 36 141 59 230 65 248 16 428 -112 497 -352 15 -53 17 -128 21
-617 l3 -558 139 0 139 0 3 553 c4 601 4 601 64 724 109 226 414 319 660 202
74 -35 160 -123 197 -201 53 -112 57 -161 57 -743 l0 -535 140 0 141 0 -4 613
c-3 551 -5 618 -21 672 -84 283 -287 453 -584 488 -286 34 -557 -90 -679 -311
l-39 -70 -29 56 c-16 32 -62 91 -106 134 -123 125 -270 185 -469 193 -66 3
-131 -1 -175 -9z"/>
<path d="M25885 3859 c-225 -22 -420 -141 -502 -306 -26 -54 -28 -66 -28 -183
0 -117 2 -129 29 -188 36 -78 130 -169 224 -216 65 -33 187 -73 451 -150 123
-36 229 -82 265 -114 65 -59 74 -187 20 -265 -81 -114 -258 -162 -448 -122
-88 19 -145 46 -196 96 -44 42 -90 128 -90 167 0 22 -1 22 -150 22 -171 0
-160 8 -135 -98 21 -90 59 -158 129 -230 135 -141 324 -212 567 -212 291 0
497 106 596 308 37 75 38 78 38 192 0 110 -1 118 -33 182 -42 85 -127 165
-225 212 -74 35 -196 76 -417 140 -158 46 -237 84 -288 140 -53 57 -69 112
-53 186 15 72 53 117 136 160 68 35 69 35 199 35 123 0 135 -2 191 -28 101
-47 160 -117 186 -221 l11 -46 143 0 143 0 -5 43 c-33 287 -262 480 -593 499
-47 3 -121 2 -165 -3z"/>
<path d="M10092 3849 c-121 -20 -254 -81 -365 -166 -127 -98 -236 -272 -284
-451 -23 -86 -26 -117 -27 -267 0 -143 3 -184 22 -258 84 -336 318 -578 621
-642 90 -19 265 -19 353 0 140 29 277 104 380 208 l58 57 0 -125 0 -125 185 0
185 0 0 875 0 875 -185 0 -185 0 0 -124 0 -124 -63 62 c-105 103 -231 169
-379 200 -82 17 -229 19 -316 5z m346 -314 c174 -41 326 -185 383 -363 33
-103 38 -283 10 -392 -51 -203 -195 -356 -382 -405 -72 -20 -202 -19 -270 1
-173 51 -304 180 -365 361 -36 105 -44 266 -20 377 69 306 350 490 644 421z"/>
<path d="M13451 3849 c-269 -48 -507 -243 -611 -503 -52 -128 -65 -212 -64
-396 1 -145 4 -177 27 -263 33 -125 82 -226 157 -325 98 -131 226 -223 385
-279 75 -26 90 -28 250 -28 165 0 173 1 257 31 109 39 225 111 300 186 l58 58
0 -125 0 -125 180 0 180 0 0 875 0 875 -180 0 -180 0 0 -127 0 -128 -31 38
c-70 85 -239 188 -364 222 -72 20 -287 28 -364 14z m331 -310 c179 -37 332
-178 399 -369 20 -56 23 -85 23 -210 1 -127 -2 -154 -23 -219 -46 -141 -149
-266 -267 -326 -144 -73 -327 -74 -469 -3 -207 104 -315 317 -302 592 8 169
59 290 166 396 124 122 303 174 473 139z"/>
<path d="M17110 2965 l0 -875 145 0 145 0 0 875 0 875 -145 0 -145 0 0 -875z"/>
<path d="M23342 3248 c4 -575 5 -595 26 -673 73 -262 234 -425 487 -491 95
-25 303 -25 395 -1 136 36 271 123 341 220 l29 40 0 -126 0 -127 145 0 145 0
0 875 0 875 -145 0 -145 0 0 -537 c0 -594 -3 -623 -62 -743 -83 -170 -265
-263 -482 -247 -108 8 -173 29 -248 80 -75 51 -137 136 -170 235 -22 66 -23
75 -26 640 l-3 572 -145 0 -145 0 3 -592z"/>
<path d="M5200 3103 c-448 -316 -835 -585 -860 -597 -35 -16 -63 -21 -125 -20
-118 1 -153 20 -304 168 -82 79 -147 134 -181 151 -64 32 -149 43 -215 26 -28
-7 -324 -170 -732 -404 l-684 -392 38 -32 c100 -84 290 -164 440 -184 52 -6
579 -9 1563 -6 1616 3 1511 0 1681 58 190 65 381 204 498 363 295 398 257 930
-91 1288 -65 67 -182 158 -202 158 -6 -1 -378 -260 -826 -577z"/>
</g>
</svg>
